<svg width="152" height="152" viewBox="0 0 152 152" fill="none" xmlns="http://www.w3.org/2000/svg"><path d="M101.548 4.327c-.871.118-1.585.157-2.485.333a26.44 26.44 0 0 0-14.585 8.04C74.843 23.007 72.251 38.568 70.98 52.109c-.314 3.333-.372 6.687-.51 10.03a302 302 0 0 0 .324 32.073c.166 3.128.489 6.364.782 9.482.127 1.421.343 2.784.392 4.216-.44.794-1.302 1.843-1.869 2.588a241 241 0 0 1-3.688 4.697 305 305 0 0 1-11.111 13.02c-4.705 5.148-9.459 10.002-13.782 15.512-2.064-.931-6.222-3.53-8.07-4.736-2.994-2.108-5.39-3.824-8.149-6.304A75.64 75.64 0 0 1 1.675 91.779 87 87 0 0 1 .051 78.356c-.146-2.765.05-5.236.235-8.001a74.25 74.25 0 0 1 19.202-45.231A75.87 75.87 0 0 1 63.105 1.09C67.028.433 70.265.257 74.227.06c2.514-.176 5.077.07 7.571.207 6.867.382 13.255 1.862 19.75 4.059" fill="url(#a)"/><path d="M146.251 105.105c-1.057 2.588-2.622 5.892-4.128 8.265-.48.755-2.475 2.775-3.228 3.462-6.564 6.039-14.477 11.364-22.616 15.07-1.33.598-4.118 1.412-5.566 1.647a17.93 17.93 0 0 1-13.596-3.245c-7.024-5.148-9.107-11.776-10.056-20.062.176-.176.195-.186.323-.402 1.007-1 3.071-4.353 3.912-5.667a481 481 0 0 0 5.253-8.168c11.396-18.15 28.289-45.937 28.358-67.744.019-4.118-.323-8.785-2.309-12.472.978.696 2.015 1.618 2.925 2.422a72 72 0 0 1 6.123 5.883c10.614 11.492 16.806 24.337 19.408 39.75a77 77 0 0 1-4.803 41.261" fill="url(#b)"/><path d="M110.567 29.8c-.108 11.13-4.96 22.621-9.518 32.583a213 213 0 0 1-8.657 17.228 177 177 0 0 1-4.118 6.942c-.352.559-2.035 3.412-2.152 3.422l-.235.059c-.215-.079-.685-.255-.792-.765-.01-3.922-.48-7.854-.558-11.786-.108-5.334-.176-10.707.01-16.041.068-1.97.264-3.942.391-5.913.206-3.186.411-6.363.783-9.53.939-7.835 3.345-20.973 9.028-26.68 2.055-2.06 4.745-3.148 7.66-3.148 1.79 0 3.658.402 4.969 1.716 2.7 2.706 3.228 8.256 3.189 11.914" fill="url(#c)"/><path d="M77.181 116.645s.04-.029.059-.049l-.059.059z" fill="url(#d)"/><path d="M105.421 146.09c-14.105 5.688-28.475 7.423-43.43 4.55-2.221-.431-5.616-1.147-7.738-1.843-.127-.334-.04-.579.185-.844 1.243-1.451 2.573-2.843 3.835-4.275l10.828-12.236a338 338 0 0 0 3.463-3.942c.665-.765 2.035-2.432 2.788-2.991 2.015 5.109 4.373 9.05 8.452 12.806 3.971 3.706 8.588 6.207 13.87 7.452 2.945.696 4.647.765 7.659.608.088.353.098.353.098.715z" fill="url(#e)"/><path d="M77.181 116.645s.04-.029.059-.049l-.059.059zm28.142 28.73c.578-.069 1.321-.147 1.869-.265-.519.333-1.203.814-1.771.98 0-.362 0-.362-.098-.715" fill="#28387d"/><defs><linearGradient id="a" x1="89.34" y1="93.142" x2="18.477" y2="26.165" gradientUnits="userSpaceOnUse"><stop stop-color="#317d58"/><stop offset="1" stop-color="#47b05c"/></linearGradient><linearGradient id="b" x1="145.576" y1="110.497" x2="87.385" y2="49.236" gradientUnits="userSpaceOnUse"><stop stop-color="#2f2e7b"/><stop offset="1" stop-color="#236080"/></linearGradient><linearGradient id="c" x1="109.804" y1="69.139" x2="78.506" y2="33.591" gradientUnits="userSpaceOnUse"><stop stop-color="#204d81"/><stop offset="1" stop-color="#296880"/></linearGradient><linearGradient id="d" x1="77.24" y1="116.606" x2="77.181" y2="116.655" gradientUnits="userSpaceOnUse"><stop stop-color="#2f7a54"/><stop offset="1" stop-color="#3c985d"/></linearGradient><linearGradient id="e" x1="91.111" y1="159.249" x2="66.476" y2="132.922" gradientUnits="userSpaceOnUse"><stop stop-color="#2f2e7b"/><stop offset="1" stop-color="#23417e"/></linearGradient></defs></svg>
